<?xml version="1.0" encoding="UTF-8" standalone="no"?><!DOCTYPE svg PUBLIC "-//W3C//DTD SVG 1.1//EN" "http://www.w3.org/Graphics/SVG/1.1/DTD/svg11.dtd"><svg width="100%" height="100%" viewBox="0 0 115 188" version="1.1" xmlns="http://www.w3.org/2000/svg" xmlns:xlink="http://www.w3.org/1999/xlink" xml:space="preserve" xmlns:serif="http://www.serif.com/" style="fill-rule:evenodd;clip-rule:evenodd;stroke-linejoin:round;stroke-miterlimit:2;"><g id="IamJem-Logo" serif:id="IamJem Logo"><path d="M-0.009,0c30.047,18.039 59.965,36.267 89.884,54.506c6.331,3.811 12.495,8.806 15.306,15.822c2.598,5.922 1.358,12.906 -1.973,18.283c-6.7,10.272 -18.189,16.294 -29.628,19.933c-1.268,0.661 -2.297,-0.489 -3.325,-1.05c-23.453,-14.328 -46.934,-28.622 -70.56,-42.656c-0.056,-21.617 0.196,-43.228 0.296,-64.839Z" style="fill:#f2552e;fill-rule:nonzero;"/><path d="M98.583,106.694c6.928,-5.033 12.922,-11.783 15.739,-19.978c0.072,19.25 -0.1,38.522 -0.117,57.778c-0.206,8.389 -4.506,16.172 -10.333,22.017c-9.922,9.717 -23.161,15.45 -36.639,18.156c-21.917,4.439 -45.85,2.939 -65.878,-7.572c-0.5,-0.361 -1.478,-0.483 -1.344,-1.289c0.017,-21.422 0.072,-42.844 0.161,-64.267c15.817,8.633 34.306,11.472 52.144,10.339c16.339,-1.106 32.722,-5.783 46.267,-15.183Z" style="fill:#f2552e;fill-rule:nonzero;"/></g></svg>