<svg xmlns="http://www.w3.org/2000/svg" xmlns:xlink="http://www.w3.org/1999/xlink" width="1008" zoomAndPan="magnify" viewBox="0 0 756 755.999995" height="1008" preserveAspectRatio="xMidYMid meet" version="1.0"><defs><clipPath id="887070deb9"><path d="M 34.042969 34.042969 L 737.640625 34.042969 L 737.640625 737.640625 L 34.042969 737.640625 Z M 34.042969 34.042969 " clip-rule="nonzero"/></clipPath><clipPath id="1363108dd1"><path d="M 552.773438 57.496094 L 441.027344 326.519531 L 711.429688 214.773438 L 737.640625 272.714844 L 465.859375 384.460938 L 737.640625 496.210938 L 711.429688 552.773438 L 441.027344 441.027344 L 552.773438 711.429688 L 496.210938 737.640625 L 384.460938 465.859375 L 272.714844 737.640625 L 216.152344 711.429688 L 326.519531 441.027344 L 57.496094 552.773438 L 34.042969 496.210938 L 303.066406 384.460938 L 34.042969 272.714844 L 57.496094 216.152344 L 326.519531 326.519531 L 216.152344 57.496094 L 272.714844 34.042969 L 384.460938 303.066406 L 496.210938 34.042969 Z M 552.773438 57.496094 " clip-rule="nonzero"/></clipPath><clipPath id="683b0668eb"><path d="M 0.0429688 0.0429688 L 703.640625 0.0429688 L 703.640625 703.640625 L 0.0429688 703.640625 Z M 0.0429688 0.0429688 " clip-rule="nonzero"/></clipPath><clipPath id="b6a373d883"><path d="M 518.773438 23.496094 L 407.027344 292.519531 L 677.429688 180.773438 L 703.640625 238.714844 L 431.859375 350.460938 L 703.640625 462.210938 L 677.429688 518.773438 L 407.027344 407.027344 L 518.773438 677.429688 L 462.210938 703.640625 L 350.460938 431.859375 L 238.714844 703.640625 L 182.152344 677.429688 L 292.519531 407.027344 L 23.496094 518.773438 L 0.0429688 462.210938 L 269.066406 350.460938 L 0.0429688 238.714844 L 23.496094 182.152344 L 292.519531 292.519531 L 182.152344 23.496094 L 238.714844 0.0429688 L 350.460938 269.066406 L 462.210938 0.0429688 Z M 518.773438 23.496094 " clip-rule="nonzero"/></clipPath><clipPath id="b5f857c336"><rect x="0" width="704" y="0" height="704"/></clipPath></defs><g clip-path="url(#887070deb9)"><g clip-path="url(#1363108dd1)"><g transform="matrix(1, 0, 0, 1, 34, 34)"><g clip-path="url(#b5f857c336)"><g clip-path="url(#683b0668eb)"><g clip-path="url(#b6a373d883)"><path fill="#f2542d" d="M 0.0429688 0.0429688 L 703.640625 0.0429688 L 703.640625 703.640625 L 0.0429688 703.640625 Z M 0.0429688 0.0429688 " fill-opacity="1" fill-rule="nonzero"/></g></g></g></g></g></g></svg>