<svg xmlns="http://www.w3.org/2000/svg" xmlns:xlink="http://www.w3.org/1999/xlink" width="1008" zoomAndPan="magnify" viewBox="0 0 756 755.999995" height="1008" preserveAspectRatio="xMidYMid meet" version="1.0"><defs><clipPath id="60ad185bed"><path d="M 19.15625 33.804688 L 737 33.804688 L 737 722.195312 L 19.15625 722.195312 Z M 19.15625 33.804688 " clip-rule="nonzero"/></clipPath><clipPath id="39cf357eb8"><path d="M 360.425781 376.535156 L 360.425781 722.195312 C 168.550781 714.875 19.15625 564.011719 19.15625 376.535156 C 19.15625 190.523438 168.550781 38.199219 360.425781 33.804688 L 360.425781 379.464844 Z M 360.425781 364.816406 L 360.425781 367.746094 C 360.425781 276.9375 398.503906 193.453125 440.980469 133.402344 C 483.457031 74.8125 540.578125 36.734375 609.417969 33.804688 L 609.417969 722.195312 C 540.578125 716.339844 483.457031 679.722656 440.980469 621.132812 C 398.503906 561.082031 360.425781 477.597656 360.425781 385.324219 Z M 609.417969 376.535156 C 609.417969 281.332031 634.316406 193.453125 659.214844 131.9375 C 672.398438 101.179688 687.042969 76.277344 703.15625 58.703125 C 716.339844 45.519531 729.519531 36.734375 736.84375 35.269531 L 736.84375 722.195312 C 729.519531 716.339844 711.945312 709.015625 703.15625 694.367188 C 687.042969 678.257812 672.398438 653.355469 659.214844 622.597656 C 635.78125 564.011719 609.417969 483.457031 609.417969 395.574219 Z M 609.417969 376.535156 " clip-rule="nonzero"/></clipPath><clipPath id="79efdfc918"><path d="M 0.15625 0.804688 L 718 0.804688 L 718 689.195312 L 0.15625 689.195312 Z M 0.15625 0.804688 " clip-rule="nonzero"/></clipPath><clipPath id="86187581b9"><path d="M 341.425781 343.535156 L 341.425781 689.195312 C 149.550781 681.875 0.15625 531.011719 0.15625 343.535156 C 0.15625 157.523438 149.550781 5.199219 341.425781 0.804688 L 341.425781 346.464844 Z M 341.425781 331.816406 L 341.425781 334.746094 C 341.425781 243.9375 379.503906 160.453125 421.980469 100.402344 C 464.457031 41.8125 521.578125 3.734375 590.417969 0.804688 L 590.417969 689.195312 C 521.578125 683.339844 464.457031 646.722656 421.980469 588.132812 C 379.503906 528.082031 341.425781 444.597656 341.425781 352.324219 Z M 590.417969 343.535156 C 590.417969 248.332031 615.316406 160.453125 640.214844 98.9375 C 653.398438 68.179688 668.042969 43.277344 684.15625 25.703125 C 697.339844 12.519531 710.519531 3.734375 717.84375 2.269531 L 717.84375 689.195312 C 710.519531 683.339844 692.945312 676.015625 684.15625 661.367188 C 668.042969 645.257812 653.398438 620.355469 640.214844 589.597656 C 616.78125 531.011719 590.417969 450.457031 590.417969 362.574219 Z M 590.417969 343.535156 " clip-rule="nonzero"/></clipPath><clipPath id="ab53a4781a"><rect x="0" width="718" y="0" height="690"/></clipPath></defs><g clip-path="url(#60ad185bed)"><g clip-path="url(#39cf357eb8)"><g transform="matrix(1, 0, 0, 1, 19, 33)"><g clip-path="url(#ab53a4781a)"><g clip-path="url(#79efdfc918)"><g clip-path="url(#86187581b9)"><path fill="#f2542d" d="M 0.15625 0.804688 L 718.128906 0.804688 L 718.128906 689.195312 L 0.15625 689.195312 Z M 0.15625 0.804688 " fill-opacity="1" fill-rule="nonzero"/></g></g></g></g></g></g></svg>